<mxfile host="app.diagrams.net" modified="2024-07-21T17:52:51.119Z" agent="Mozilla/5.0 (Windows NT 10.0; Win64; x64) AppleWebKit/537.36 (KHTML, like Gecko) Chrome/126.0.0.0 Safari/537.36" etag="IJHHjqtyojSDuZ_7URz0" version="24.7.1" type="github">
  <diagram name="Page-1" id="1JcPu4f_Aro9Onbhpski">
    <mxGraphModel dx="1050" dy="603" grid="1" gridSize="10" guides="1" tooltips="1" connect="1" arrows="1" fold="1" page="1" pageScale="1" pageWidth="1100" pageHeight="850" math="0" shadow="0">
      <root>
        <mxCell id="0" />
        <mxCell id="1" parent="0" />
        <mxCell id="9Ew00DkSmRaJd_RAmtzQ-2" value="Aplikasi optimasi produksi" style="swimlane;whiteSpace=wrap;html=1;" parent="1" vertex="1">
          <mxGeometry x="230" y="40" width="460" height="450" as="geometry" />
        </mxCell>
        <mxCell id="9Ew00DkSmRaJd_RAmtzQ-23" style="rounded=0;orthogonalLoop=1;jettySize=auto;html=1;fontFamily=Helvetica;fontSize=12;fontColor=default;labelBackgroundColor=default;edgeStyle=orthogonalEdgeStyle;" parent="9Ew00DkSmRaJd_RAmtzQ-2" source="9Ew00DkSmRaJd_RAmtzQ-7" target="9Ew00DkSmRaJd_RAmtzQ-15" edge="1">
          <mxGeometry relative="1" as="geometry">
            <Array as="points">
              <mxPoint x="395" y="111.43" />
            </Array>
          </mxGeometry>
        </mxCell>
        <mxCell id="9Ew00DkSmRaJd_RAmtzQ-7" value="Goal Programming" style="shape=image;editableCssRules=.*;verticalLabelPosition=top;labelBackgroundColor=default;verticalAlign=bottom;aspect=fixed;imageAspect=0;image=data:image/svg+xml,PHN2ZyB4bWxucz0iaHR0cDovL3d3dy53My5vcmcvMjAwMC9zdmciIHZpZXdCb3g9Ii0wLjUgLTAuNSAyNS44NjcgMjgiIGhlaWdodD0iMjgiIHdpZHRoPSIyNS44NjciPiYjeGE7CSAgPHN0eWxlIHR5cGU9InRleHQvY3NzIj4uc3QwIHsgc3RvcC1jb2xvcjogcmdiKDkzLCAxOTMsIDM0KTsgfSAuc3QxIHsgc3RvcC1jb2xvcjogcmdiKDM3LCAxMTEsIDU4KTsgfSA8L3N0eWxlPiYjeGE7CTxkZWZzPiYjeGE7CQk8bGluZWFyR3JhZGllbnQgZ3JhZGllbnRVbml0cz0idXNlclNwYWNlT25Vc2UiIHkyPSIyMy42MTMiIHgyPSIyMy4yMjciIHkxPSIzLjQ3NCIgeDE9IjEuODQ2IiBpZD0iQSI+JiN4YTsJCQk8c3RvcCBjbGFzcz0ic3QwIi8+JiN4YTsJCQk8c3RvcCBjbGFzcz0ic3QxIiBvZmZzZXQ9IjEiLz4mI3hhOwkJPC9saW5lYXJHcmFkaWVudD4mI3hhOwk8L2RlZnM+JiN4YTsJPHBhdGggZmlsbD0idXJsKCNBKSIgZD0iTTEzLjM5IDI3LjVoLTEuOTE1Yy0uNjU2IDAtMS4yNTctLjIxOS0xLjgwMy0uNjU2YTIuNDYgMi40NiAwIDAgMS0uOTMxLTEuNTg1bC0uMzgzLTEuODA0LTIuMzUtMS40MjMtMS42NDEuNzFhMy42MSAzLjYxIDAgMCAxLTEuMDQuMTY1Yy0uNTA5IDAtMS4wMDMtLjEyOC0xLjQ3Ny0uMzgzLS40NTItLjI3MS0uODEzLS42NzEtMS4wMzgtMS4xNDhsLTEuMDM5LTIuMDIzYy0uMTY5LS4zNzktLjI2Mi0uNzg5LS4yNzMtMS4yMDRhMi43NSAyLjc1IDAgMCAxIDEuMTQ4LTIuMjk2bDEuMjU4LS45Mjl2LTIuODQ1bC0xLjMxMi0uOTgzQy0uMTM2IDEwLjU0Ni0uNSA5Ljc5OS0uNSA4Ljg1MmMwLS4zNjYuMDkxLS43NjcuMjczLTEuMjA0bDEuMDQtMi4wMjNjLjI1NS0uNTExLjYtLjg5MyAxLjAzOC0xLjE0OC40NzQtLjI1NS45NjgtLjM4MyAxLjQ3Ny0uMzgzLjQwMiAwIC43NDcuMDc0IDEuMDQuMjE5bDEuNjQxLjY1NiAyLjM1LTEuNDIzLjM4My0xLjgwMkEyLjY4IDIuNjggMCAwIDEgOS43MjcuMTU2YTIuNjEgMi42MSAwIDAgMSAxLjc1LS42NTZoMS45MTNhMi42MSAyLjYxIDAgMCAxIDEuNzUuNjU2Yy41MTEuNDAzLjg0LjkyOS45ODUgMS41ODZsLjMyNyAxLjgwNiAyLjQwNiAxLjQyMSAxLjY0Mi0uNjU2Yy4yOTEtLjE0NS42MzctLjIxOSAxLjA0LS4yMTlhMi43NyAyLjc3IDAgMCAxIDEuNDIxLjM4M2MuNDczLjI1NS44NC42MzcgMS4wOTQgMS4xNDhsLjk4NSAyLjAyM2MuMjE3LjM2Ni4zMjcuNzg0LjMyNyAxLjI1OCAwIC45MS0uMzgzIDEuNjQyLTEuMTQ4IDIuMTg4bC0xLjMxMi45ODV2Mi44NDRsMS4zMTMuOTI4Yy43NjUuNTg1IDEuMTQ4IDEuMzMyIDEuMTQ4IDIuMjQzIDAgLjQzOC0uMTEuODU4LS4zMjkgMS4yNThsLS45ODMgMi4wMjNjLS4yNTYuNTExLS42MTkuODkyLTEuMDk0IDEuMTQ4LS40MzcuMjU2LS45MS4zODMtMS40MjMuMzgzLS4zNjQgMC0uNzEtLjA1NC0xLjAzOC0uMTY1bC0xLjY0Mi0uNzEtMi40MDYgMS40MjMtLjMyNyAxLjgwMmMtLjE0Ny42NTgtLjQ3NCAxLjE4Ni0uOTg1IDEuNTg3YTIuNjEgMi42MSAwIDAgMS0xLjc1LjY1NnptLTcuMzgzLTguMjU4Yy40NzQgMCAuOTQ5LjE0NyAxLjQyMy40MzhsMi40MDYgMS40MjNjLjczLjQzOCAxLjE0OCAxLjA0IDEuMjU4IDEuODA0bC4zODIgMS44MDRoMS45MTVsLjMyOS0xLjgwNGMuMTgyLS44MDIuNjItMS40MDQgMS4zMTMtMS44MDRsMi4zNTItMS40MjNhMy4wNiAzLjA2IDAgMCAxIDEuNTI5LS40MzdjLjE4NCAwIC4zNDYuMDE3LjQ5NC4wNTRhNC4xNyA0LjE3IDAgMCAxIC40OTIuMTY1bDEuNjQyLjY1Ni45ODMtMi4wMjMtMS4yNTgtLjkyOWMtLjc2NS0uNTg0LTEuMTQ4LTEuMzMtMS4xNDgtMi4yNDJ2LTIuODQ1YzAtLjkxLjM4My0xLjY1NyAxLjE0OC0yLjI0bDEuMjU4LS45MzEtLjk4NS0yLjAyMy0xLjY0LjcxYy0uMzM1LjExMS0uNjg2LjE2Ni0xLjA0LjE2NS0uNTgzIDAtMS4wNzUtLjEyOC0xLjQ3Ny0uMzgzbC0yLjM1LTEuNDc3YTIuNjggMi42OCAwIDAgMS0xLjMxMi0xLjgwNEwxMy4zOSAyLjI5aC0xLjkxNWwtLjM4MiAxLjgwNGMtLjExLjc2Ni0uNTI4IDEuMzY3LTEuMjU4IDEuODA0TDcuNDgzIDcuMzc1Yy0uNDAxLjI1NS0uODkzLjM4My0xLjQ3NS4zODMtLjMyOSAwLS42OTMtLjA1Ni0xLjA5NC0uMTY1bC0xLjY0MS0uNzEtLjk4NSAyLjAyMyAxLjMxMy45MjljLjc2Ny41ODUgMS4xNSAxLjMzIDEuMTUgMi4yNDR2Mi44NDRjMCAuOTEtLjM4MyAxLjY1Ny0xLjE0OCAyLjI0bC0xLjMxMi45MzEgMS4wMzggMi4wMjMgMS42NDEtLjY1NmMuMjktLjE0NS42MzctLjIxOSAxLjA0LS4yMTl6bTYuNC0uMTY1YTUuNTcgNS41NyAwIDAgMS0yLjE4Ny0uNDM3Yy0uNjUzLS4yODktMS4yNDYtLjY5Ny0xLjc1LTEuMjAyYTUuNzcgNS43NyAwIDAgMS0xLjIwNC0xLjc1IDUuNTggNS41OCAwIDAgMS0uNDM3LTIuMTg3IDUuMjEgNS4yMSAwIDAgMSAuNDM4LTIuMTMzYy4yOTItLjY5My42OTMtMS4yOTUgMS4yMDQtMS44MDRzMS4wOTQtLjkxIDEuNzUtMS4yMDRhNS42IDUuNiAwIDAgMSAyLjE4OC0uNDM3Yy43NjUgMCAxLjQ5NS4xNDcgMi4xODguNDM4czEuMjk1LjY5MyAxLjgwNCAxLjIwNC45MSAxLjExMSAxLjIwNCAxLjgwNGMuMjkxLjY1Ni40MzggMS4zNjguNDM4IDIuMTMzYTUuNiA1LjYgMCAwIDEtLjQzNyAyLjE4OGMtLjI5LjY1My0uNjk4IDEuMjQ2LTEuMjA0IDEuNzUtLjUxMS41MTEtMS4xMTEuOTEtMS44MDQgMS4yMDRzLTEuNDIzLjQzNi0yLjE4Ny40MzZ6bTAtOC4zNjVjLS43NjcgMC0xLjQyMy4yNzEtMS45NjkuODE5LS4yNjQuMjU1LS40NzMuNTYxLS42MTQuODk5cy0uMjExLjcwMy0uMjA2IDEuMDY5YzAgLjc2Ny4yNzMgMS40MjMuODIxIDEuOTY5czEuMjAyLjgyMSAxLjk2OS44MjFjLjgwMiAwIDEuNDc3LS4yNzMgMi4wMjMtLjgyMXMuODIxLTEuMjA0LjgyMS0xLjk2OS0uMjczLTEuNDIzLS44MjEtMS45NjlhMi43NSAyLjc1IDAgMCAwLS45MjctLjYyYy0uMzQ4LS4xNDEtLjcyMS0uMjA4LTEuMDk2LS4xOTl6Ii8+JiN4YTs8L3N2Zz4=;labelPosition=center;align=center;" parent="9Ew00DkSmRaJd_RAmtzQ-2" vertex="1">
          <mxGeometry x="329" y="91.43" width="37.14" height="40" as="geometry" />
        </mxCell>
        <mxCell id="9Ew00DkSmRaJd_RAmtzQ-6" value="Database" style="shape=image;editableCssRules=.*;verticalLabelPosition=top;labelBackgroundColor=default;verticalAlign=bottom;aspect=fixed;imageAspect=0;image=data:image/svg+xml,PHN2ZyB4bWxucz0iaHR0cDovL3d3dy53My5vcmcvMjAwMC9zdmciIHZpZXdCb3g9Ii0wLjUgLTAuNSA0MC45NDEgNDUuMDg4IiBoZWlnaHQ9IjQ1LjA4OCIgd2lkdGg9IjQwLjk0MSI+JiN4YTsJICA8c3R5bGUgdHlwZT0idGV4dC9jc3MiPi5zdDAgeyBzdG9wLWNvbG9yOiByZ2IoOTMsIDE5MywgMzQpOyB9IC5zdDEgeyBzdG9wLWNvbG9yOiByZ2IoMzcsIDExMSwgNTgpOyB9IDwvc3R5bGU+JiN4YTsJPGRlZnM+JiN4YTsJCTxsaW5lYXJHcmFkaWVudCBncmFkaWVudFVuaXRzPSJ1c2VyU3BhY2VPblVzZSIgeTI9IjM3LjczOCIgeDI9IjM3LjYwMiIgeTE9IjUuOSIgeDE9IjMuMjEzIiBpZD0iQSI+JiN4YTsJCQk8c3RvcCBjbGFzcz0ic3QwIi8+JiN4YTsJCQk8c3RvcCBjbGFzcz0ic3QxIiBvZmZzZXQ9IjEiLz4mI3hhOwkJPC9saW5lYXJHcmFkaWVudD4mI3hhOwk8L2RlZnM+JiN4YTsJPHBhdGggZmlsbD0idXJsKCNBKSIgZD0iTTM4LjE0NyA0LjA4OGMuNzA2LjU4OCAxLjI2NSAxLjIzNSAxLjY3NiAxLjk0MS40MTIuNjQ3LjYxOCAxLjQ0MS42MTggMi4zODJ2MjcuMzUzYzAgLjg4Mi0uMjM1IDEuNjc2LS43MDYgMi4zODJzLTEgMS4zNTMtMS41ODggMS45NDFjLS41MjkuNDcxLTEuMjA2LjkxMi0yLjAzIDEuMzI0LS43NjUuNDEyLTEuNTg4Ljc5NC0yLjQ3MSAxLjE0Ny0xLjgyMy43MDYtMy45MTIgMS4yMDYtNi4yNjUgMS41LTIuMjk0LjM1My00Ljc2NS41MjktNy40MTIuNTI5cy01LjE0Ny0uMTc2LTcuNS0uNTI5Yy0yLjI5NC0uMjk0LTQuMzUzLS43OTQtNi4xNzYtMS41bC0yLjQ3MS0uOTdhOC42NCA4LjY0IDAgMCAxLTIuMDI5LTEuNUMuMjY1IDM4Ljg1My0uNSAzNy40MTItLjUgMzUuNzY1VjguNDEyYzAtLjk0MS4yMzUtMS43MzUuNzA2LTIuMzgyLjQ3MS0uNzA2IDEtMS4zNTMgMS41ODgtMS45NDEgMS4xNzYtMSAyLjY3Ni0xLjg1MyA0LjUtMi41NTlDOC4xMTguODgyIDEwLjE3Ni4zODIgMTIuNDcxLjAyOWMyLjM1My0uMzUzIDQuODUzLS41MjkgNy41LS41MjlzNS4xMTguMTc2IDcuNDEyLjUyOWMyLjM1My4zNTMgNC40NDEuODUzIDYuMjY1IDEuNS44ODIuMzUzIDEuNzA2LjczNSAyLjQ3MSAxLjE0Ny44MjQuMzUzIDEuNS44MjQgMi4wMyAxLjQxMnptLTIuMjA2IDE5LjMyNGMtMi43NjUuOTQxLTUuMzgyIDEuNjc2LTcuODUzIDIuMjA2LTIuNDEyLjUyOS01LjExOC43OTQtOC4xMTguNzk0LTIuNjQ3IDAtNS4xNDctLjE3Ny03LjUtLjUyOS0yLjI5NC0uMzUzLTQuMzUzLS44NTMtNi4xNzYtMS41LS45NDEtLjI5NC0xLjcwNi0uNjE4LTIuMjk0LS45NzF2My4xNzdsLjE3Ni4zNTNjLjA1OS4xMTguMjM1LjMyNC41MjkuNjE4Ljc2NS43MDYgMS43OTQgMS4yOTQgMy4wODggMS43NjUgMS4zNTMuNDcxIDIuNzY1Ljg1MyA0LjIzNSAxLjE0N2w0LjMyNC41MjkgMy42MTguMTc2YTUwLjQ1IDUwLjQ1IDAgMCAwIDcuOTQxLS42MThjMi41ODgtLjQ3IDUuMDI5LTEuNDcgNy4zMjMtMyAuMzUzLS4yMzUuNTU5LS40NDEuNjE4LS42MTguMDU5LS4xMTguMDg4LS4yMzUuMDg4LS4zNTN6bTAtOS4wODhjLTIuNzY1Ljk0MS01LjM4MiAxLjY3Ni03Ljg1MyAyLjIwNi0yLjQxMi41MjktNS4xMTguNzk0LTguMTE4Ljc5NC0uODgyIDAtMi4wNTktLjA1OS0zLjUyOS0uMTc2bC00LjU4OC0uNTI5LTQuNS0uODgyYy0xLjQxMi0uNDEyLTIuNTI5LS44ODItMy4zNTMtMS40MTJWMTcuNWMwIC4wNTkuMDI5LjE0Ny4wODguMjY1LjExOC4wNTkuMjA2LjE0Ny4yNjUuMjY1bC4zNTMuMzUzYy43NjUuNzY1IDEuNzk0IDEuMzgyIDMuMDg4IDEuODUzIDEuMzUzLjQ3MSAyLjc2NS44NTMgNC4yMzUgMS4xNDdsNC4zMjQuNTI5IDMuNjE4LjE3NmMyLjcwNiAwIDUuMzUzLS4yMzUgNy45NDEtLjcwNnM1LjAyOS0xLjQ3MSA3LjMyMy0zYy4zNTMtLjIzNS41NTktLjQ0MS42MTgtLjYxOC4wNTktLjExOC4wODgtLjIwNi4wODgtLjI2NXpNNC43MDYgNy41MjljLS4yOTQuMTE4LS41LjMyNC0uNjE4LjYxOC0uMDU5LjExOC0uMDg4LjIwNi0uMDg4LjI2NXMuMDI5LjE0Ny4wODguMjY1Yy4xMTguMDU5LjIwNi4xNDcuMjY1LjI2NWwuMzUzLjM1M2MuNzY1Ljc2NSAxLjc5NCAxLjM4MiAzLjA4OCAxLjg1MyAxLjM1My40NzEgMi43NjUuODUzIDQuMjM1IDEuMTQ3bDQuMzI0LjUyOSAzLjYxOC4xNzZjMi40MTIgMCA0LjY0Ny0uMTQ3IDYuNzA2LS40NDEgMi4wNTktLjM1MyAzLjg1My0uODI0IDUuMzgyLTEuNDEybDMuMTc2LTEuODUzYy4zNTMtLjIzNS41NTktLjQ0MS42MTgtLjYxOC4wNTktLjExOC4wODgtLjIwNi4wODgtLjI2NS0uMDU5LS4wNTktLjExNy0uMTQ3LS4xNzYtLjI2NXMtLjIzNS0uMzI0LS41MjktLjYxOGMtLjc2NS0uNzY1LTEuODIzLTEuMzgyLTMuMTc2LTEuODUzLTEuMjk0LS40NzEtMi42NzYtLjgyNC00LjE0Ny0xLjA1OS0xLjQ3MS0uMjk0LTIuOTQxLS41LTQuNDEyLS42MThsLTMuNTI5LS4xNzZjLTIuNzA2IDAtNS4zNTMuMjM1LTcuOTQxLjcwNlM3IDYgNC43MDYgNy41Mjl6bTMwLjUyOSAyOS4xMThjLjM1My0uMjM1LjU1OS0uNDQxLjYxOC0uNjE4LjA1OS0uMTE3LjA4OC0uMjA2LjA4OC0uMjY1VjMyLjVjLS4wNTkuMDU5LS4xMTcuMDg4LS4xNzYuMDg4cy0uMDg4LjAyOS0uMDg4LjA4OEgzNS41bC0uMTc2LjA4OGMtLjA1OS4wNTktLjExOC4wODgtLjE3Ni4wODgtMi42NDcgMS01LjE0NyAxLjcwNi03LjUgMi4xMTgtMi4yOTQuMzUzLTQuODUzLjUyOS03LjY3Ni41MjktLjg4MiAwLTIuMDU5LS4wNTktMy41MjktLjE3NmwtNC41ODgtLjUyOS00LjUtLjg4MkM1Ljk0MSAzMy41IDQuODI0IDMzLjAyOSA0IDMyLjV2My4yNjVjMCAuMDU5LjAyOS4xNDcuMDg4LjI2NS4wNTkuMTc2LjI2NS4zODMuNjE4LjYxOC43NjUuNzY1IDEuNzk0IDEuMzgyIDMuMDg4IDEuODUzIDEuMzUzLjQ3MSAyLjc2NS44NTMgNC4yMzUgMS4xNDdsNC4zMjQuNTI5IDMuNjE4LjA4OGMyLjcwNiAwIDUuMzUzLS4yMDYgNy45NDEtLjYxOCAyLjU4OC0uNDcxIDUuMDI5LTEuNDcgNy4zMjMtM3oiLz4mI3hhOzwvc3ZnPg==;labelPosition=center;align=center;" parent="9Ew00DkSmRaJd_RAmtzQ-2" vertex="1">
          <mxGeometry x="210.78" y="70" width="36.44" height="40" as="geometry" />
        </mxCell>
        <mxCell id="9Ew00DkSmRaJd_RAmtzQ-18" style="rounded=0;orthogonalLoop=1;jettySize=auto;html=1;fontFamily=Helvetica;fontSize=12;fontColor=default;labelBackgroundColor=default;edgeStyle=orthogonalEdgeStyle;" parent="9Ew00DkSmRaJd_RAmtzQ-2" source="9Ew00DkSmRaJd_RAmtzQ-5" target="9Ew00DkSmRaJd_RAmtzQ-12" edge="1">
          <mxGeometry relative="1" as="geometry">
            <Array as="points">
              <mxPoint x="229" y="231.43" />
              <mxPoint x="169" y="231.43" />
              <mxPoint x="169" y="111.43" />
            </Array>
          </mxGeometry>
        </mxCell>
        <mxCell id="9Ew00DkSmRaJd_RAmtzQ-19" value="&lt;font style=&quot;font-size: 11px;&quot;&gt;Peramalan&lt;/font&gt;&lt;div style=&quot;font-size: 11px;&quot;&gt;&lt;font style=&quot;font-size: 11px;&quot;&gt;Permintaan&lt;/font&gt;&lt;/div&gt;" style="edgeLabel;html=1;align=center;verticalAlign=middle;resizable=0;points=[];strokeColor=default;fontFamily=Helvetica;fontSize=12;fontColor=default;labelBackgroundColor=default;fillColor=default;" parent="9Ew00DkSmRaJd_RAmtzQ-18" vertex="1" connectable="0">
          <mxGeometry x="-0.4127" y="1" relative="1" as="geometry">
            <mxPoint x="-23" y="-31" as="offset" />
          </mxGeometry>
        </mxCell>
        <mxCell id="9Ew00DkSmRaJd_RAmtzQ-21" style="rounded=0;orthogonalLoop=1;jettySize=auto;html=1;fontFamily=Helvetica;fontSize=12;fontColor=default;labelBackgroundColor=default;edgeStyle=orthogonalEdgeStyle;" parent="9Ew00DkSmRaJd_RAmtzQ-2" source="9Ew00DkSmRaJd_RAmtzQ-5" target="9Ew00DkSmRaJd_RAmtzQ-7" edge="1">
          <mxGeometry relative="1" as="geometry">
            <Array as="points">
              <mxPoint x="229" y="231.43" />
              <mxPoint x="289" y="231.43" />
              <mxPoint x="289" y="111.43" />
            </Array>
          </mxGeometry>
        </mxCell>
        <mxCell id="9Ew00DkSmRaJd_RAmtzQ-22" value="&lt;font style=&quot;font-size: 11px;&quot;&gt;Optimasi&lt;/font&gt;&lt;div&gt;&lt;span style=&quot;font-size: 11px;&quot;&gt;Jumlah Produksi&lt;/span&gt;&lt;/div&gt;" style="edgeLabel;html=1;align=center;verticalAlign=middle;resizable=0;points=[];strokeColor=default;fontFamily=Helvetica;fontSize=12;fontColor=default;labelBackgroundColor=default;fillColor=default;" parent="9Ew00DkSmRaJd_RAmtzQ-21" vertex="1" connectable="0">
          <mxGeometry x="0.1549" y="-3" relative="1" as="geometry">
            <mxPoint x="-3" y="22" as="offset" />
          </mxGeometry>
        </mxCell>
        <mxCell id="9Ew00DkSmRaJd_RAmtzQ-24" style="rounded=0;orthogonalLoop=1;jettySize=auto;html=1;fontFamily=Helvetica;fontSize=12;fontColor=default;labelBackgroundColor=default;edgeStyle=orthogonalEdgeStyle;" parent="9Ew00DkSmRaJd_RAmtzQ-2" source="9Ew00DkSmRaJd_RAmtzQ-5" target="9Ew00DkSmRaJd_RAmtzQ-4" edge="1">
          <mxGeometry relative="1" as="geometry">
            <Array as="points">
              <mxPoint x="240" y="330" />
              <mxPoint x="309" y="330" />
            </Array>
          </mxGeometry>
        </mxCell>
        <mxCell id="9Ew00DkSmRaJd_RAmtzQ-29" value="&lt;font style=&quot;font-size: 11px;&quot;&gt;Tampilan&lt;/font&gt;&lt;div style=&quot;font-size: 11px;&quot;&gt;&lt;font style=&quot;font-size: 11px;&quot;&gt;Informasi&lt;/font&gt;&lt;/div&gt;" style="edgeLabel;html=1;align=center;verticalAlign=middle;resizable=0;points=[];strokeColor=default;fontFamily=Helvetica;fontSize=12;fontColor=default;labelBackgroundColor=default;fillColor=default;" parent="9Ew00DkSmRaJd_RAmtzQ-24" vertex="1" connectable="0">
          <mxGeometry x="-0.2571" y="1" relative="1" as="geometry">
            <mxPoint x="9" y="1" as="offset" />
          </mxGeometry>
        </mxCell>
        <mxCell id="9Ew00DkSmRaJd_RAmtzQ-27" value="&lt;font style=&quot;font-size: 11px;&quot;&gt;Simpan dan&lt;/font&gt;&lt;div style=&quot;font-size: 11px;&quot;&gt;&lt;font style=&quot;font-size: 11px;&quot;&gt;Ambil Data&lt;/font&gt;&lt;/div&gt;" style="rounded=0;orthogonalLoop=1;jettySize=auto;html=1;fontFamily=Helvetica;fontSize=12;fontColor=default;labelBackgroundColor=default;startArrow=classic;startFill=1;" parent="9Ew00DkSmRaJd_RAmtzQ-2" source="9Ew00DkSmRaJd_RAmtzQ-5" target="9Ew00DkSmRaJd_RAmtzQ-6" edge="1">
          <mxGeometry x="0.4867" relative="1" as="geometry">
            <mxPoint as="offset" />
          </mxGeometry>
        </mxCell>
        <mxCell id="9Ew00DkSmRaJd_RAmtzQ-5" value="" style="shape=image;editableCssRules=.*;verticalLabelPosition=bottom;labelBackgroundColor=default;verticalAlign=top;aspect=fixed;imageAspect=0;image=data:image/svg+xml,PHN2ZyB4bWxucz0iaHR0cDovL3d3dy53My5vcmcvMjAwMC9zdmciIHZpZXdCb3g9Ii0wLjUgLTAuNSAyOCAyNi41MzgiIGhlaWdodD0iMjYuNTM4IiB3aWR0aD0iMjgiPiYjeGE7CSAgPHN0eWxlIHR5cGU9InRleHQvY3NzIj4uc3QwIHsgc3RvcC1jb2xvcjogcmdiKDkzLCAxOTMsIDM0KTsgfSAuc3QxIHsgc3RvcC1jb2xvcjogcmdiKDM3LCAxMTEsIDU4KTsgfSA8L3N0eWxlPiYjeGE7CTxkZWZzPiYjeGE7CQk8bGluZWFyR3JhZGllbnQgZ3JhZGllbnRVbml0cz0idXNlclNwYWNlT25Vc2UiIHkyPSIyNS4wNDgiIHgyPSIyMi4yODYiIHkxPSIzLjI2NyIgeDE9IjIuMDM5IiBpZD0iQSI+JiN4YTsJCQk8c3RvcCBjbGFzcz0ic3QwIi8+JiN4YTsJCQk8c3RvcCBjbGFzcz0ic3QxIiBvZmZzZXQ9IjEiLz4mI3hhOwkJPC9saW5lYXJHcmFkaWVudD4mI3hhOwk8L2RlZnM+JiN4YTsJPHBhdGggZmlsbD0idXJsKCNBKSIgZD0iTTIzLjI5MS0uNDk5QTQuMDYgNC4wNiAwIDAgMSAyNi4yNzMuNzI4Yy44MTcuODE3IDEuMjI3IDEuNzkyIDEuMjI3IDIuOTIydjIuODA2YzAgLjQzLS4xMzcuNzgtLjQxIDEuMDUzLS4yNzcuMjM1LS42My4zNTktLjk5My4zNS0uMzYzLjAxLS43MTYtLjExNS0uOTkzLS4zNWExLjQyIDEuNDIgMCAwIDEtLjMxNC0uNDg0Yy0uMDctLjE4MS0uMTAzLS4zNzUtLjA5Ni0uNTY5VjMuNjQ5Yy4wMDctLjE3Ny0uMDI2LS4zNTMtLjA5Ny0uNTE1YTEuMTcgMS4xNyAwIDAgMC0uMzEyLS40MjEgMS4zNSAxLjM1IDAgMCAwLS45OTMtLjQwOEgzLjcwOWExLjM1IDEuMzUgMCAwIDAtLjk5My40MDggMS4xNyAxLjE3IDAgMCAwLS40MS45MzV2MS40MDNIOS4zMmMuMzkxIDAgLjcyMi4xMzcuOTk1LjQxYTEuMzUgMS4zNSAwIDAgMSAuMzA3LjQ1NGMuMDcuMTcxLjEwNC4zNTQuMTAxLjUzOSAwIC40My0uMTM3Ljc4LS40MDggMS4wNTMtLjI3Ny4yMzUtLjYzMi4zNi0uOTk1LjM1SDIuMzA2djEyLjYyNmMwIC4zOTEuMTM3LjcyMi40MS45OTUuMTI5LjEzMi4yODQuMjM2LjQ1NC4zMDdzLjM1NC4xMDUuNTM5LjEwMWgzLjUwN2MuMzkxIDAgLjcyMi4xMzcuOTk1LjQxLjI3MS4yMzQuNDA4LjU2NS40MDguOTkzLjAwNC4xODUtLjAzMS4zNjktLjEwMS41NHMtLjE3NS4zMjYtLjMwNy40NTVjLS4yNzcuMjM1LS42MzIuMzYtLjk5NS4zNUgzLjcwOWMtMS4xMyAwLTIuMTIzLS40MS0yLjk4Mi0xLjIyN0EzLjk5IDMuOTkgMCAwIDEtLjUgMjAuNDg0VjMuNjQ5Qy0uNSAyLjUyLS4wOSAxLjU0NS43MjcuNzI4IDEuNTg2LS4wOTIgMi41NzktLjQ5OSAzLjcwOS0uNDk5em0tNS40OTYgNi45NTVjMS4zNjYgMCAyLjYzMi4yNzMgMy44MDEuODE5YTkuMjQgOS4yNCAwIDAgMSAzLjA0IDIuMTA0Yy44OTYuODk2IDEuNTk3IDEuOTI4IDIuMTA0IDMuMDk4cy43NTkgMi40MzUuNzU5IDMuNzk5Yy4wMDQgMS4zMDUtLjI1NCAyLjU5OC0uNzU5IDMuODAxLS40OTggMS4xNTctMS4yMTMgMi4yMDgtMi4xMDQgMy4wOTgtLjkwNC45MDEtMS45NzcgMS42MTYtMy4xNTcgMi4xMDRhOS40NSA5LjQ1IDAgMCAxLTMuNzk5Ljc1OWMtMS4zMDQuMDA0LTIuNTk2LS4yNTQtMy43OTktLjc1OS0xLjE1Ny0uNDk4LTIuMjA4LTEuMjEzLTMuMDk4LTIuMTA0YTkuOTIgOS45MiAwIDAgMS0yLjEwNC0zLjA5OGMtLjUwNi0xLjIwMy0uNzY1LTIuNDk2LS43NjEtMy44MDEgMC0xLjM2NC4yNTQtMi42My43NjEtMy43OTlhOS41NCA5LjU0IDAgMCAxIDIuMDQzLTMuMDk4IDkuOTIgOS45MiAwIDAgMSAzLjEtMi4xMDQgOS4xMyA5LjEzIDAgMCAxIDMuNzk3LS44MTl6bTUuNDk2IDUuNjEyYy0uNzQxLS45MzUtMS41OTgtMS42MTYtMi41NzItMi4wNDQuMTk1LjMxLjM1Mi42NDIuNDY4Ljk5MWwuNDY4IDEuMDUzem0tNS42MTItMS43NTNjLS4yNzMuNDY4LS41NjUgMS4wNTEtLjg3NyAxLjc1M2gxLjgxM2MtLjMxMi0uNzc4LS42MjMtMS4zNjQtLjkzNS0xLjc1M3ptLTYuOTU2IDUuOTYxdi43MDFsLjExOC43MDFoMi4yNzhhNC4yNiA0LjI2IDAgMCAxLS4wNTYtLjcwMXYtLjcwMS0uNzAxYzAtLjIzNC4wMTktLjQ2OC4wNTYtLjcwMWgtMi4yNzZsLS4xMTguNzAxem0xLjQwMyA0LjIwOWMuNzQxLjkzNSAxLjU5NyAxLjYxOCAyLjU3MiAyLjA0NmwtLjUyNi0uOTM1LS40MS0xLjExMXptMS42MzctOC40MTdsLjQxLTEuMDUxYTguMDIgOC4wMiAwIDAgMSAuNTI2LS45OTNjLS45NzMuNDI4LTEuODMxIDEuMTA5LTIuNTcyIDIuMDQ1em0zLjkxNyAxMC4xNzJjLjE5NS0uMjczLjM1Mi0uNTQ2LjQ2OC0uODE5bC40NjgtLjkzNWgtMS44MTJ6bTEuNzU1LTQuNTZhMi4yNCAyLjI0IDAgMCAwIC4xMTYtLjcwMXYtLjcwMS0uNzAxYTIuMTQgMi4xNCAwIDAgMC0uMTE4LS43MDFoLTMuNDQ1YTIuMjEgMi4yMSAwIDAgMC0uMTE4LjcwMXYxLjQwM2EyLjE5IDIuMTkgMCAwIDAgLjExOC43MDFoMy40NDl6bTEuMjg1IDQuODUyYy45NzMtLjQzIDEuODMzLTEuMTExIDIuNTcyLTIuMDQ2aC0xLjYzN2wtLjQ2OCAxLjExMWE1LjIzIDUuMjMgMCAwIDEtLjQ2OC45MzV6bTMuODU5LTQuODUyYy4wMzctLjIzNC4wNTYtLjQ2OC4wNTYtLjcwMS4wNzctLjQ2NS4wNzctLjkzOSAwLTEuNDAzIDAtLjIzNC0uMDE5LS40NjgtLjA1Ni0uNzAxaC0yLjI4MmE0LjA0IDQuMDQgMCAwIDEgLjA2LjcwMXYxLjQwM2MwIC4yMzQtLjAxOS40NjgtLjA1OC43MDF6Ii8+JiN4YTs8L3N2Zz4=;strokeColor=default;align=center;fontFamily=Helvetica;fontSize=12;fontColor=default;fillColor=default;" parent="9Ew00DkSmRaJd_RAmtzQ-2" vertex="1">
          <mxGeometry x="209" y="271.43" width="40" height="38.57" as="geometry" />
        </mxCell>
        <mxCell id="9Ew00DkSmRaJd_RAmtzQ-4" value="User" style="shape=image;editableCssRules=.*;verticalLabelPosition=bottom;labelBackgroundColor=default;verticalAlign=top;aspect=fixed;imageAspect=0;image=data:image/svg+xml,PHN2ZyB4bWxucz0iaHR0cDovL3d3dy53My5vcmcvMjAwMC9zdmciIHZpZXdCb3g9Ii0wLjUgLTAuNSAyOCAyOCIgaGVpZ2h0PSIyOCIgd2lkdGg9IjI4Ij4mI3hhOwkgIDxzdHlsZSB0eXBlPSJ0ZXh0L2NzcyI+LnN0MCB7IHN0b3AtY29sb3I6IHJnYig5MywgMTkzLCAzNCk7IH0gLnN0MSB7IHN0b3AtY29sb3I6IHJnYigzNywgMTExLCA1OCk7IH0gPC9zdHlsZT4mI3hhOwk8ZGVmcz4mI3hhOwkJPGxpbmVhckdyYWRpZW50IGdyYWRpZW50VW5pdHM9InVzZXJTcGFjZU9uVXNlIiB5Mj0iMjUuMzA5IiB4Mj0iMjMuNDU0IiB5MT0iMy40NzQiIHgxPSIyLjAzOSIgaWQ9IkEiPiYjeGE7CQkJPHN0b3AgY2xhc3M9InN0MCIvPiYjeGE7CQkJPHN0b3AgY2xhc3M9InN0MSIgb2Zmc2V0PSIxIi8+JiN4YTsJCTwvbGluZWFyR3JhZGllbnQ+JiN4YTsJPC9kZWZzPiYjeGE7CTxwYXRoIGZpbGw9InVybCgjQSkiIGQ9Ik0tLjUgMTMuNDcyYzAtMS45My4zNzEtMy43MyAxLjExMy01LjQuNzQyLTEuNzA3IDEuNzQ0LTMuMTkyIDMuMDA2LTQuNDUzUzYuMzY1IDEuMzU2IDguMDczLjYxMyAxMS41OTgtLjUgMTMuNTI4LS41czMuNzMuMzcxIDUuNCAxLjExM2MxLjcwNy43NDIgMy4xOTIgMS43NDQgNC40NTMgMy4wMDZzMi4yNjQgMi43NDYgMy4wMDYgNC40NTNjLjc0MiAxLjY3IDEuMTEzIDMuNDcgMS4xMTMgNS40cy0uMzcxIDMuNzQ4LTEuMTEzIDUuNDU1LTEuNzQ0IDMuMTkyLTMuMDA2IDQuNDUzYTE0LjI4IDE0LjI4IDAgMCAxLTQuNDUzIDMuMDA2Yy0xLjY3Ljc0Mi0zLjQ3IDEuMTEzLTUuNCAxLjExM3MtMy43NDgtLjM3MS01LjQ1NS0xLjExM2ExNC4yOCAxNC4yOCAwIDAgMS00LjQ1My0zLjAwNiAxNC4yOCAxNC4yOCAwIDAgMS0zLjAwNi00LjQ1M0MtLjEyOSAxNy4yMi0uNSAxNS40MDItLjUgMTMuNDcyem0xNi44MTEgNC4yMzFhNi42NSA2LjY1IDAgMCAxIDMuMjg0LjgzNWMxLjAwMi41MiAxLjgxOCAxLjI0MyAyLjQ0OSAyLjE3MWExMC4xNCAxMC4xNCAwIDAgMCAxLjk0OC0zLjI4NGMuNDgyLTEuMjI1LjcyNC0yLjU0Mi43MjQtMy45NTIgMC0xLjU1OS0uMjk3LTMuMDA2LS44OTEtNC4zNDItLjU5NC0xLjM3My0xLjM5Mi0yLjU2MS0yLjM5NC0zLjU2M3MtMi4xOS0xLjgtMy41NjMtMi4zOTRjLTEuMzM2LS41OTQtMi43ODMtLjg5MS00LjM0Mi0uODkxcy0zLjAyNC4yOTctNC4zOTguODkxYy0xLjMzNi41OTQtMi41MjQgMS4zOTItMy41NjMgMi4zOTRBMTEuMzUgMTEuMzUgMCAwIDAgMy4xNzQgOS4xM2MtLjU5NCAxLjMzNi0uODkxIDIuNzgzLS44OTEgNC4zNDIgMCAxLjQxLjIyMyAyLjcyOC42NjggMy45NTIuNDgyIDEuMjI1IDEuMTUgMi4zMTkgMi4wMDQgMy4yODQuNjMxLS45MjggMS40NDctMS42NTEgMi40NDktMi4xNzFhNi42NSA2LjY1IDAgMCAxIDMuMjg0LS44MzV6bTIuNzgzLTcuMDE0YTUuNjggNS42OCAwIDAgMS0uNDQ1IDIuMjI3IDUuODcgNS44NyAwIDAgMS0xLjIyNSAxLjc4MWMtLjQ4Mi40ODItMS4wNTguODcyLTEuNzI2IDEuMTY5cy0xLjM5Mi40NDUtMi4xNzEuNDQ1YTUuNjggNS42OCAwIDAgMS0yLjIyNy0uNDQ1IDYuNDQgNi40NCAwIDAgMS0xLjc4MS0xLjE2OSA2LjQ0IDYuNDQgMCAwIDEtMS4xNjktMS43ODEgNS42OCA1LjY4IDAgMCAxLS40NDUtMi4yMjdjMC0uNzc5LjE0OC0xLjUwMy40NDUtMi4xNzFBNi40NCA2LjQ0IDAgMCAxIDkuNTIgNi43MzdhNS44NyA1Ljg3IDAgMCAxIDEuNzgxLTEuMjI1IDUuNjggNS42OCAwIDAgMSAyLjIyNy0uNDQ1Yy43NzkgMCAxLjUwMy4xNDggMi4xNzEuNDQ1czEuMjQzLjcwNSAxLjcyNiAxLjIyNWE1Ljg3IDUuODcgMCAwIDEgMS4yMjUgMS43ODFjLjI5Ny42NjguNDQ1IDEuMzkyLjQ0NSAyLjE3MXptLTIuNzgzIDBjMC0uNzc5LS4yNzgtMS40MjktLjgzNS0xLjk0OC0uNTU3LS41NTctMS4yMDYtLjgzNS0xLjk0OC0uODM1YTIuNzMgMi43MyAwIDAgMC0yLjAwNC44MzVjLS41NTcuNTItLjgzNSAxLjE2OS0uODM1IDEuOTQ4YTIuNzMgMi43MyAwIDAgMCAuODM1IDIuMDA0Yy41NTcuNTIgMS4yMjUuNzc5IDIuMDA0Ljc3OS43NDIgMCAxLjM5Mi0uMjYgMS45NDgtLjc3OWEyLjczIDIuNzMgMCAwIDAgLjgzNS0yLjAwNHpNNy4wNzEgMjIuNjU3Yy44OTEuNjMxIDEuODc0IDEuMTMyIDIuOTUgMS41MDMgMS4xMTMuMzcxIDIuMjgyLjU1NyAzLjUwNy41NTcgMS4xODggMCAyLjMxOS0uMTg2IDMuMzk2LS41NTcgMS4xMTMtLjM3MSAyLjExNS0uODcyIDMuMDA2LTEuNTAzLS4zNzEtLjY2OC0uODkxLTEuMTg4LTEuNTU5LTEuNTU5LS42MzEtLjQwOC0xLjMxNy0uNjEyLTIuMDYtLjYxMmgtNS42MjJjLS43NDIgMC0xLjQ0Ny4yMDQtMi4xMTUuNjEyLS42MzEuMzcxLTEuMTMyLjg5MS0xLjUwMyAxLjU1OXoiLz4mI3hhOzwvc3ZnPg==;fontSize=11;" parent="9Ew00DkSmRaJd_RAmtzQ-2" vertex="1">
          <mxGeometry x="289" y="351.43" width="40" height="40" as="geometry" />
        </mxCell>
        <mxCell id="9Ew00DkSmRaJd_RAmtzQ-20" style="rounded=0;orthogonalLoop=1;jettySize=auto;html=1;fontFamily=Helvetica;fontSize=12;fontColor=default;labelBackgroundColor=default;edgeStyle=orthogonalEdgeStyle;" parent="9Ew00DkSmRaJd_RAmtzQ-2" source="9Ew00DkSmRaJd_RAmtzQ-12" target="9Ew00DkSmRaJd_RAmtzQ-14" edge="1">
          <mxGeometry relative="1" as="geometry" />
        </mxCell>
        <mxCell id="9Ew00DkSmRaJd_RAmtzQ-12" value="Regresi Linier" style="shape=image;editableCssRules=.*;verticalLabelPosition=top;labelBackgroundColor=default;verticalAlign=bottom;aspect=fixed;imageAspect=0;image=data:image/svg+xml,PHN2ZyB4bWxucz0iaHR0cDovL3d3dy53My5vcmcvMjAwMC9zdmciIHZpZXdCb3g9Ii0wLjUgLTAuNSAyNS44NjcgMjgiIGhlaWdodD0iMjgiIHdpZHRoPSIyNS44NjciPiYjeGE7CSAgPHN0eWxlIHR5cGU9InRleHQvY3NzIj4uc3QwIHsgc3RvcC1jb2xvcjogcmdiKDkzLCAxOTMsIDM0KTsgfSAuc3QxIHsgc3RvcC1jb2xvcjogcmdiKDM3LCAxMTEsIDU4KTsgfSA8L3N0eWxlPiYjeGE7CTxkZWZzPiYjeGE7CQk8bGluZWFyR3JhZGllbnQgZ3JhZGllbnRVbml0cz0idXNlclNwYWNlT25Vc2UiIHkyPSIyMy42MTMiIHgyPSIyMy4yMjciIHkxPSIzLjQ3NCIgeDE9IjEuODQ2IiBpZD0iQSI+JiN4YTsJCQk8c3RvcCBjbGFzcz0ic3QwIi8+JiN4YTsJCQk8c3RvcCBjbGFzcz0ic3QxIiBvZmZzZXQ9IjEiLz4mI3hhOwkJPC9saW5lYXJHcmFkaWVudD4mI3hhOwk8L2RlZnM+JiN4YTsJPHBhdGggZmlsbD0idXJsKCNBKSIgZD0iTTEzLjM5IDI3LjVoLTEuOTE1Yy0uNjU2IDAtMS4yNTctLjIxOS0xLjgwMy0uNjU2YTIuNDYgMi40NiAwIDAgMS0uOTMxLTEuNTg1bC0uMzgzLTEuODA0LTIuMzUtMS40MjMtMS42NDEuNzFhMy42MSAzLjYxIDAgMCAxLTEuMDQuMTY1Yy0uNTA5IDAtMS4wMDMtLjEyOC0xLjQ3Ny0uMzgzLS40NTItLjI3MS0uODEzLS42NzEtMS4wMzgtMS4xNDhsLTEuMDM5LTIuMDIzYy0uMTY5LS4zNzktLjI2Mi0uNzg5LS4yNzMtMS4yMDRhMi43NSAyLjc1IDAgMCAxIDEuMTQ4LTIuMjk2bDEuMjU4LS45Mjl2LTIuODQ1bC0xLjMxMi0uOTgzQy0uMTM2IDEwLjU0Ni0uNSA5Ljc5OS0uNSA4Ljg1MmMwLS4zNjYuMDkxLS43NjcuMjczLTEuMjA0bDEuMDQtMi4wMjNjLjI1NS0uNTExLjYtLjg5MyAxLjAzOC0xLjE0OC40NzQtLjI1NS45NjgtLjM4MyAxLjQ3Ny0uMzgzLjQwMiAwIC43NDcuMDc0IDEuMDQuMjE5bDEuNjQxLjY1NiAyLjM1LTEuNDIzLjM4My0xLjgwMkEyLjY4IDIuNjggMCAwIDEgOS43MjcuMTU2YTIuNjEgMi42MSAwIDAgMSAxLjc1LS42NTZoMS45MTNhMi42MSAyLjYxIDAgMCAxIDEuNzUuNjU2Yy41MTEuNDAzLjg0LjkyOS45ODUgMS41ODZsLjMyNyAxLjgwNiAyLjQwNiAxLjQyMSAxLjY0Mi0uNjU2Yy4yOTEtLjE0NS42MzctLjIxOSAxLjA0LS4yMTlhMi43NyAyLjc3IDAgMCAxIDEuNDIxLjM4M2MuNDczLjI1NS44NC42MzcgMS4wOTQgMS4xNDhsLjk4NSAyLjAyM2MuMjE3LjM2Ni4zMjcuNzg0LjMyNyAxLjI1OCAwIC45MS0uMzgzIDEuNjQyLTEuMTQ4IDIuMTg4bC0xLjMxMi45ODV2Mi44NDRsMS4zMTMuOTI4Yy43NjUuNTg1IDEuMTQ4IDEuMzMyIDEuMTQ4IDIuMjQzIDAgLjQzOC0uMTEuODU4LS4zMjkgMS4yNThsLS45ODMgMi4wMjNjLS4yNTYuNTExLS42MTkuODkyLTEuMDk0IDEuMTQ4LS40MzcuMjU2LS45MS4zODMtMS40MjMuMzgzLS4zNjQgMC0uNzEtLjA1NC0xLjAzOC0uMTY1bC0xLjY0Mi0uNzEtMi40MDYgMS40MjMtLjMyNyAxLjgwMmMtLjE0Ny42NTgtLjQ3NCAxLjE4Ni0uOTg1IDEuNTg3YTIuNjEgMi42MSAwIDAgMS0xLjc1LjY1NnptLTcuMzgzLTguMjU4Yy40NzQgMCAuOTQ5LjE0NyAxLjQyMy40MzhsMi40MDYgMS40MjNjLjczLjQzOCAxLjE0OCAxLjA0IDEuMjU4IDEuODA0bC4zODIgMS44MDRoMS45MTVsLjMyOS0xLjgwNGMuMTgyLS44MDIuNjItMS40MDQgMS4zMTMtMS44MDRsMi4zNTItMS40MjNhMy4wNiAzLjA2IDAgMCAxIDEuNTI5LS40MzdjLjE4NCAwIC4zNDYuMDE3LjQ5NC4wNTRhNC4xNyA0LjE3IDAgMCAxIC40OTIuMTY1bDEuNjQyLjY1Ni45ODMtMi4wMjMtMS4yNTgtLjkyOWMtLjc2NS0uNTg0LTEuMTQ4LTEuMzMtMS4xNDgtMi4yNDJ2LTIuODQ1YzAtLjkxLjM4My0xLjY1NyAxLjE0OC0yLjI0bDEuMjU4LS45MzEtLjk4NS0yLjAyMy0xLjY0LjcxYy0uMzM1LjExMS0uNjg2LjE2Ni0xLjA0LjE2NS0uNTgzIDAtMS4wNzUtLjEyOC0xLjQ3Ny0uMzgzbC0yLjM1LTEuNDc3YTIuNjggMi42OCAwIDAgMS0xLjMxMi0xLjgwNEwxMy4zOSAyLjI5aC0xLjkxNWwtLjM4MiAxLjgwNGMtLjExLjc2Ni0uNTI4IDEuMzY3LTEuMjU4IDEuODA0TDcuNDgzIDcuMzc1Yy0uNDAxLjI1NS0uODkzLjM4My0xLjQ3NS4zODMtLjMyOSAwLS42OTMtLjA1Ni0xLjA5NC0uMTY1bC0xLjY0MS0uNzEtLjk4NSAyLjAyMyAxLjMxMy45MjljLjc2Ny41ODUgMS4xNSAxLjMzIDEuMTUgMi4yNDR2Mi44NDRjMCAuOTEtLjM4MyAxLjY1Ny0xLjE0OCAyLjI0bC0xLjMxMi45MzEgMS4wMzggMi4wMjMgMS42NDEtLjY1NmMuMjktLjE0NS42MzctLjIxOSAxLjA0LS4yMTl6bTYuNC0uMTY1YTUuNTcgNS41NyAwIDAgMS0yLjE4Ny0uNDM3Yy0uNjUzLS4yODktMS4yNDYtLjY5Ny0xLjc1LTEuMjAyYTUuNzcgNS43NyAwIDAgMS0xLjIwNC0xLjc1IDUuNTggNS41OCAwIDAgMS0uNDM3LTIuMTg3IDUuMjEgNS4yMSAwIDAgMSAuNDM4LTIuMTMzYy4yOTItLjY5My42OTMtMS4yOTUgMS4yMDQtMS44MDRzMS4wOTQtLjkxIDEuNzUtMS4yMDRhNS42IDUuNiAwIDAgMSAyLjE4OC0uNDM3Yy43NjUgMCAxLjQ5NS4xNDcgMi4xODguNDM4czEuMjk1LjY5MyAxLjgwNCAxLjIwNC45MSAxLjExMSAxLjIwNCAxLjgwNGMuMjkxLjY1Ni40MzggMS4zNjguNDM4IDIuMTMzYTUuNiA1LjYgMCAwIDEtLjQzNyAyLjE4OGMtLjI5LjY1My0uNjk4IDEuMjQ2LTEuMjA0IDEuNzUtLjUxMS41MTEtMS4xMTEuOTEtMS44MDQgMS4yMDRzLTEuNDIzLjQzNi0yLjE4Ny40MzZ6bTAtOC4zNjVjLS43NjcgMC0xLjQyMy4yNzEtMS45NjkuODE5LS4yNjQuMjU1LS40NzMuNTYxLS42MTQuODk5cy0uMjExLjcwMy0uMjA2IDEuMDY5YzAgLjc2Ny4yNzMgMS40MjMuODIxIDEuOTY5czEuMjAyLjgyMSAxLjk2OS44MjFjLjgwMiAwIDEuNDc3LS4yNzMgMi4wMjMtLjgyMXMuODIxLTEuMjA0LjgyMS0xLjk2OS0uMjczLTEuNDIzLS44MjEtMS45NjlhMi43NSAyLjc1IDAgMCAwLS45MjctLjYyYy0uMzQ4LS4xNDEtLjcyMS0uMjA4LTEuMDk2LS4xOTl6Ii8+JiN4YTs8L3N2Zz4=;labelPosition=center;align=center;" parent="9Ew00DkSmRaJd_RAmtzQ-2" vertex="1">
          <mxGeometry x="91.86" y="91.43" width="37.14" height="40" as="geometry" />
        </mxCell>
        <mxCell id="9Ew00DkSmRaJd_RAmtzQ-16" style="rounded=0;orthogonalLoop=1;jettySize=auto;html=1;fontFamily=Helvetica;fontSize=12;fontColor=default;labelBackgroundColor=default;edgeStyle=orthogonalEdgeStyle;" parent="9Ew00DkSmRaJd_RAmtzQ-2" source="9Ew00DkSmRaJd_RAmtzQ-13" target="9Ew00DkSmRaJd_RAmtzQ-5" edge="1">
          <mxGeometry relative="1" as="geometry">
            <Array as="points">
              <mxPoint x="149" y="330" />
              <mxPoint x="220" y="330" />
            </Array>
          </mxGeometry>
        </mxCell>
        <mxCell id="9Ew00DkSmRaJd_RAmtzQ-17" value="&lt;font style=&quot;font-size: 11px;&quot;&gt;Input Data&lt;/font&gt;" style="edgeLabel;html=1;align=center;verticalAlign=middle;resizable=0;points=[];strokeColor=default;fontFamily=Helvetica;fontSize=12;fontColor=default;labelBackgroundColor=default;fillColor=default;" parent="9Ew00DkSmRaJd_RAmtzQ-16" vertex="1" connectable="0">
          <mxGeometry x="-0.2762" y="2" relative="1" as="geometry">
            <mxPoint x="12" as="offset" />
          </mxGeometry>
        </mxCell>
        <mxCell id="9Ew00DkSmRaJd_RAmtzQ-13" value="Data Penjualan dan&#xa;Keuntungan Produk" style="shape=image;editableCssRules=.*;verticalLabelPosition=bottom;labelBackgroundColor=default;verticalAlign=top;aspect=fixed;imageAspect=0;image=data:image/svg+xml,PHN2ZyB4bWxucz0iaHR0cDovL3d3dy53My5vcmcvMjAwMC9zdmciIHZpZXdCb3g9Ii0wLjUgLTAuNSAyNy45OTkgMjgiIGhlaWdodD0iMjgiIHdpZHRoPSIyNy45OTkiPiYjeGE7CSAgPHN0eWxlIHR5cGU9InRleHQvY3NzIj4uc3QwIHsgc3RvcC1jb2xvcjogcmdiKDkzLCAxOTMsIDM0KTsgfSAuc3QxIHsgc3RvcC1jb2xvcjogcmdiKDM3LCAxMTEsIDU4KTsgfSA8L3N0eWxlPiYjeGE7CTxkZWZzPiYjeGE7CQk8bGluZWFyR3JhZGllbnQgZ3JhZGllbnRVbml0cz0idXNlclNwYWNlT25Vc2UiIHkyPSIyNS4zMDgiIHgyPSIyMy40NTQiIHkxPSIzLjQ3NCIgeDE9IjIuMDM5IiBpZD0iQSI+JiN4YTsJCQk8c3RvcCBjbGFzcz0ic3QwIi8+JiN4YTsJCQk8c3RvcCBjbGFzcz0ic3QxIiBvZmZzZXQ9IjEiLz4mI3hhOwkJPC9saW5lYXJHcmFkaWVudD4mI3hhOwk8L2RlZnM+JiN4YTsJPHBhdGggZmlsbD0idXJsKCNBKSIgZD0iTTI3LjA2MS0uMDYxYy4yOTMuMjkzLjQzOC42MDMuNDM4LjkzMXYyNS4yMDRhMS40NiAxLjQ2IDAgMCAxLS4zODQuOTg3Yy0uMjU2LjI5MS0uNjAzLjQzOC0xLjA0MS40MzhINi41MTNjLS40MzggMC0uNzg1LS4xNDctMS4wNC0uNDM4YTEuNDYgMS40NiAwIDAgMS0uMzg2LS45ODdWOS4zMDljMC0uMzY2LjE0Ny0uNjk0LjQzOC0uOTg3bDguMzg0LTguMzgzYTEuMjUgMS4yNSAwIDAgMSAuOTg3LS40MzhoMTEuMTc2Yy40MDMgMCAuNzMxLjE0Ni45ODcuNDM4em0tMi4zNTcgMi4zNTZoLTkuMjU5bC0uNTQ5LjU0N3YzLjY3MWEyLjY5IDIuNjkgMCAwIDEtLjgyMSAxLjk3MyAyLjY5IDIuNjkgMCAwIDEtMS45NzMuODIySDguNDMxbC0uNTQ5LjU0N3YxNC44NDloMTYuODIxek0xMC42NzcgMTQuODk3YzAtLjQwMi4xMjgtLjcyOS4zODQtLjk4NS4yNTYtLjI5My42MDMtLjQzOCAxLjA0Mi0uNDM4aDguMzgzYy40MDMgMCAuNzMxLjE0Ni45ODcuNDM4LjI5MS4yNTYuNDM4LjU4NC40MzguOTg1cy0uMTQ3LjczMS0uNDM4Ljk4N2MtLjEzLjEyOC0uMjg0LjIyOC0uNDU0LjI5NHMtLjM1MS4wOTctLjUzMy4wOWgtOC4zODNjLS45NSAwLTEuNDI1LS40NTYtMS40MjUtMS4zNzF6bTkuODA4IDQuMjE5Yy40MDMgMCAuNzMxLjE0Ny45ODcuNDM4LjEzOC4xMTMuMjQ5LjI1NS4zMjUuNDE3YTEuMTkgMS4xOSAwIDAgMSAuMTEzLjUxNiAxLjM2IDEuMzYgMCAwIDEtLjQzOC45ODUgMS4yNSAxLjI1IDAgMCAxLS45ODcuNDM4aC04LjM4M2MtLjQzOCAwLS43ODYtLjE0NS0xLjA0MS0uNDM4YTEuNDYgMS40NiAwIDAgMS0uMzg0LS45ODUgMS4yNiAxLjI2IDAgMCAxIC4zODQtLjkzMWMuMjU2LS4yOTMuNjAzLS40MzggMS4wNDEtLjQzOHpNOC44Ny0uMDYxYy4yOTMuMjkzLjQzOC42MjEuNDM4Ljk4NyAwIC4zMjgtLjE0Ni42MzgtLjQzOC45MjlMMi4yOTUgOC40M3YxNy42NDRhMS40NiAxLjQ2IDAgMCAxLS4zODQuOTg3Yy0uMjU2LjI5MS0uNjAxLjQzOC0xLjA0LjQzOGExLjI1IDEuMjUgMCAwIDEtLjU0My0uMTA3Yy0uMTcxLS4wNzYtLjMyMi0uMTg5LS40NDQtLjMzMWExLjQ2IDEuNDYgMCAwIDEtLjM4NC0uOTg3VjcuODgzYzAtLjQwMi4xNDctLjcyOS40MzgtLjk4NUw2Ljg5Ny0uMDYxYTEuMzYgMS4zNiAwIDAgMSAuOTg3LS40MzhjLjM2NSAwIC42OTMuMTQ2Ljk4NS40Mzh6Ii8+JiN4YTs8L3N2Zz4=;strokeColor=default;align=center;fontFamily=Helvetica;fontSize=11;fontColor=default;fillColor=default;" parent="9Ew00DkSmRaJd_RAmtzQ-2" vertex="1">
          <mxGeometry x="129" y="351.43" width="40" height="40" as="geometry" />
        </mxCell>
        <mxCell id="9Ew00DkSmRaJd_RAmtzQ-25" style="rounded=0;orthogonalLoop=1;jettySize=auto;html=1;fontFamily=Helvetica;fontSize=12;fontColor=default;labelBackgroundColor=default;edgeStyle=orthogonalEdgeStyle;" parent="9Ew00DkSmRaJd_RAmtzQ-2" source="9Ew00DkSmRaJd_RAmtzQ-15" target="9Ew00DkSmRaJd_RAmtzQ-5" edge="1">
          <mxGeometry relative="1" as="geometry">
            <Array as="points">
              <mxPoint x="395" y="291.43" />
            </Array>
          </mxGeometry>
        </mxCell>
        <mxCell id="9Ew00DkSmRaJd_RAmtzQ-15" value="Hasil Optimasi" style="shape=image;editableCssRules=.*;verticalLabelPosition=bottom;labelBackgroundColor=default;verticalAlign=top;aspect=fixed;imageAspect=0;image=data:image/svg+xml,PHN2ZyB4bWxucz0iaHR0cDovL3d3dy53My5vcmcvMjAwMC9zdmciIHZpZXdCb3g9Ii0wLjUgLTAuNSAzNS45OTggNDUuMDg5IiBoZWlnaHQ9IjQ1LjA4OSIgd2lkdGg9IjM1Ljk5OCI+JiN4YTsJICA8c3R5bGUgdHlwZT0idGV4dC9jc3MiPi5zdDAgeyBzdG9wLWNvbG9yOiByZ2IoOTMsIDE5MywgMzQpOyB9IC5zdDEgeyBzdG9wLWNvbG9yOiByZ2IoMzcsIDExMSwgNTgpOyB9IDwvc3R5bGU+JiN4YTsJPGRlZnM+JiN4YTsJCTxsaW5lYXJHcmFkaWVudCBncmFkaWVudFVuaXRzPSJ1c2VyU3BhY2VPblVzZSIgeTI9IjQ0LjU4OSIgeDI9IjE3LjQ5OSIgeTE9Ii0uNSIgeDE9IjE3LjQ5OSIgaWQ9IkEiPiYjeGE7CQkJPHN0b3AgY2xhc3M9InN0MCIvPiYjeGE7CQkJPHN0b3AgY2xhc3M9InN0MSIgb2Zmc2V0PSIxIi8+JiN4YTsJCTwvbGluZWFyR3JhZGllbnQ+JiN4YTsJPC9kZWZzPiYjeGE7CTxwYXRoIGZpbGw9InVybCgjQSkiIGQ9Ik05LjIwNSAxNC41OTJjLS4yMi0uMjAzLS4zOTYtLjQ0OC0uNTE3LS43MjJzLS4xODYtLjU2OS0uMTg5LS44NjhjMC0uNTg3LjIzNC0xLjExNS43MDYtMS41ODdzLjk2OC0uNzA2IDEuNDk2LS43MDZjLjU5MyAwIDEuMTIxLjIzNCAxLjU5LjcwNmwzLjAwNCAyLjkxMSA3LjQxMi03LjQxMmMuMjAzLS4yMTkuNDQ4LS4zOTUuNzIxLS41MTdzLjU2OC0uMTg2Ljg2Ni0uMTg5Yy41OSAwIDEuMTE4LjIzNyAxLjU5LjcwNnMuNzA2IDEgLjcwNiAxLjU5YTIuMTkgMi4xOSAwIDAgMS0uMTg5Ljg2NmMtLjEyMS4yNzMtLjI5Ny41MTgtLjUxNy43MjFsLTkuMDkyIDkuMDA0Yy0uMjAzLjIyLS40NDkuMzk2LS43MjIuNTE3cy0uNTY5LjE4Ni0uODY4LjE4OWMtLjUyOCAwLTEuMDI4LS4yMzctMS40OTYtLjcwNmwtNC41MDYtNC41MDR6bTE1LjA4MyA3LjQxMmMxLjQ3MSAwIDIuMjA1Ljc2MiAyLjIwNSAyLjI5NiAwIDEuNDY4LS43MzQgMi4yMDItMi4yMDIgMi4yMDJoLTEzLjU5Yy0xLjQ3MSAwLTIuMjA4LS43MzQtMi4yMDgtMi4yMDIgMC0xLjUzLjczNC0yLjI5NiAyLjIwOC0yLjI5NnptMCA5LjAwMWEyLjAxIDIuMDEgMCAwIDEgMS41OS43MDZjLjIwNi4yMDguMzY3LjQ1Ny40NzMuNzNzLjE1Ni41NjQuMTQ1Ljg1N2MwIDEuNDY4LS43MzQgMi4yMDUtMi4yMDggMi4yMDVIMTAuNzA0Yy0xLjQ3MSAwLTIuMjA4LS43MzQtMi4yMDgtMi4yMDUgMC0uNjQ5LjIwNi0xLjE3Ny42MjEtMS41OWEyLjAxIDIuMDEgMCAwIDEgMS41ODctLjcwNmgxMy41ODd6TTMwLjk5Ny0uNUE0LjMzIDQuMzMgMCAwIDEgMzQuMTczLjgyNGE0LjMzIDQuMzMgMCAwIDEgMS4zMjQgMy4xNzZ2MzYuMDg4YTQuMzIgNC4zMiAwIDAgMS0xLjMyNCAzLjE3NmMtLjQxMS40MjYtLjkwNS43NjMtMS40NTEuOTkxYTQuMzMgNC4zMyAwIDAgMS0xLjcyNS4zMzNINC4wMDFhNC4zMiA0LjMyIDAgMCAxLTMuMTc2LTEuMzI0QTQuMzMgNC4zMyAwIDAgMS0uNSA0MC4wODhWNC4wMDRBNC4zMiA0LjMyIDAgMCAxIC44MjUuODI3IDQuMzMgNC4zMyAwIDAgMSAzLjk5OC0uNDk3aDI2Ljk5OXptMCA0LjUwMUg0LjAwMXYzNi4wODhIMzFWNC4wMDR6Ii8+JiN4YTs8L3N2Zz4=;strokeColor=default;align=center;fontFamily=Helvetica;fontSize=12;fontColor=default;fillColor=default;" parent="9Ew00DkSmRaJd_RAmtzQ-2" vertex="1">
          <mxGeometry x="379" y="191.43" width="32" height="40" as="geometry" />
        </mxCell>
        <mxCell id="9Ew00DkSmRaJd_RAmtzQ-26" style="rounded=0;orthogonalLoop=1;jettySize=auto;html=1;fontFamily=Helvetica;fontSize=12;fontColor=default;labelBackgroundColor=default;edgeStyle=orthogonalEdgeStyle;" parent="9Ew00DkSmRaJd_RAmtzQ-2" source="9Ew00DkSmRaJd_RAmtzQ-14" target="9Ew00DkSmRaJd_RAmtzQ-5" edge="1">
          <mxGeometry relative="1" as="geometry">
            <Array as="points">
              <mxPoint x="65" y="290.43" />
            </Array>
          </mxGeometry>
        </mxCell>
        <mxCell id="9Ew00DkSmRaJd_RAmtzQ-14" value="Hasil Peramalan" style="shape=image;editableCssRules=.*;verticalLabelPosition=bottom;labelBackgroundColor=default;verticalAlign=top;aspect=fixed;imageAspect=0;image=data:image/svg+xml,PHN2ZyB4bWxucz0iaHR0cDovL3d3dy53My5vcmcvMjAwMC9zdmciIHZpZXdCb3g9Ii0wLjUgLTAuNSAzNS45OTggNDUuMDg5IiBoZWlnaHQ9IjQ1LjA4OSIgd2lkdGg9IjM1Ljk5OCI+JiN4YTsJICA8c3R5bGUgdHlwZT0idGV4dC9jc3MiPi5zdDAgeyBzdG9wLWNvbG9yOiByZ2IoOTMsIDE5MywgMzQpOyB9IC5zdDEgeyBzdG9wLWNvbG9yOiByZ2IoMzcsIDExMSwgNTgpOyB9IDwvc3R5bGU+JiN4YTsJPGRlZnM+JiN4YTsJCTxsaW5lYXJHcmFkaWVudCBncmFkaWVudFVuaXRzPSJ1c2VyU3BhY2VPblVzZSIgeTI9IjQ0LjU4OSIgeDI9IjE3LjQ5OSIgeTE9Ii0uNSIgeDE9IjE3LjQ5OSIgaWQ9IkEiPiYjeGE7CQkJPHN0b3AgY2xhc3M9InN0MCIvPiYjeGE7CQkJPHN0b3AgY2xhc3M9InN0MSIgb2Zmc2V0PSIxIi8+JiN4YTsJCTwvbGluZWFyR3JhZGllbnQ+JiN4YTsJPC9kZWZzPiYjeGE7CTxwYXRoIGZpbGw9InVybCgjQSkiIGQ9Ik05LjIwNSAxNC41OTJjLS4yMi0uMjAzLS4zOTYtLjQ0OC0uNTE3LS43MjJzLS4xODYtLjU2OS0uMTg5LS44NjhjMC0uNTg3LjIzNC0xLjExNS43MDYtMS41ODdzLjk2OC0uNzA2IDEuNDk2LS43MDZjLjU5MyAwIDEuMTIxLjIzNCAxLjU5LjcwNmwzLjAwNCAyLjkxMSA3LjQxMi03LjQxMmMuMjAzLS4yMTkuNDQ4LS4zOTUuNzIxLS41MTdzLjU2OC0uMTg2Ljg2Ni0uMTg5Yy41OSAwIDEuMTE4LjIzNyAxLjU5LjcwNnMuNzA2IDEgLjcwNiAxLjU5YTIuMTkgMi4xOSAwIDAgMS0uMTg5Ljg2NmMtLjEyMS4yNzMtLjI5Ny41MTgtLjUxNy43MjFsLTkuMDkyIDkuMDA0Yy0uMjAzLjIyLS40NDkuMzk2LS43MjIuNTE3cy0uNTY5LjE4Ni0uODY4LjE4OWMtLjUyOCAwLTEuMDI4LS4yMzctMS40OTYtLjcwNmwtNC41MDYtNC41MDR6bTE1LjA4MyA3LjQxMmMxLjQ3MSAwIDIuMjA1Ljc2MiAyLjIwNSAyLjI5NiAwIDEuNDY4LS43MzQgMi4yMDItMi4yMDIgMi4yMDJoLTEzLjU5Yy0xLjQ3MSAwLTIuMjA4LS43MzQtMi4yMDgtMi4yMDIgMC0xLjUzLjczNC0yLjI5NiAyLjIwOC0yLjI5NnptMCA5LjAwMWEyLjAxIDIuMDEgMCAwIDEgMS41OS43MDZjLjIwNi4yMDguMzY3LjQ1Ny40NzMuNzNzLjE1Ni41NjQuMTQ1Ljg1N2MwIDEuNDY4LS43MzQgMi4yMDUtMi4yMDggMi4yMDVIMTAuNzA0Yy0xLjQ3MSAwLTIuMjA4LS43MzQtMi4yMDgtMi4yMDUgMC0uNjQ5LjIwNi0xLjE3Ny42MjEtMS41OWEyLjAxIDIuMDEgMCAwIDEgMS41ODctLjcwNmgxMy41ODd6TTMwLjk5Ny0uNUE0LjMzIDQuMzMgMCAwIDEgMzQuMTczLjgyNGE0LjMzIDQuMzMgMCAwIDEgMS4zMjQgMy4xNzZ2MzYuMDg4YTQuMzIgNC4zMiAwIDAgMS0xLjMyNCAzLjE3NmMtLjQxMS40MjYtLjkwNS43NjMtMS40NTEuOTkxYTQuMzMgNC4zMyAwIDAgMS0xLjcyNS4zMzNINC4wMDFhNC4zMiA0LjMyIDAgMCAxLTMuMTc2LTEuMzI0QTQuMzMgNC4zMyAwIDAgMS0uNSA0MC4wODhWNC4wMDRBNC4zMiA0LjMyIDAgMCAxIC44MjUuODI3IDQuMzMgNC4zMyAwIDAgMSAzLjk5OC0uNDk3aDI2Ljk5OXptMCA0LjUwMUg0LjAwMXYzNi4wODhIMzFWNC4wMDR6Ii8+JiN4YTs8L3N2Zz4=;strokeColor=default;align=center;fontFamily=Helvetica;fontSize=12;fontColor=default;fillColor=default;" parent="9Ew00DkSmRaJd_RAmtzQ-2" vertex="1">
          <mxGeometry x="49" y="191.42999999999998" width="32" height="40" as="geometry" />
        </mxCell>
      </root>
    </mxGraphModel>
  </diagram>
</mxfile>
